<svg id="Capa_1" data-name="Capa 1" xmlns="http://www.w3.org/2000/svg" viewBox="0 0 522 525.39"><defs><style>.cls-1{fill:#ee562f;}.cls-1,.cls-2,.cls-3,.cls-4{stroke:#12130f;stroke-miterlimit:10;stroke-width:10px;}.cls-2{fill:#f8f7f9;}.cls-3{fill:#33ebc9;}.cls-4{fill:#6e44ff;}</style></defs><path class="cls-1" d="M300.47,30.6V188.47a26,26,0,0,1-25.6,25.6H139.4L39.13,266.33V214.07H30.6A26,26,0,0,1,5,188.47V30.6A26,26,0,0,1,30.6,5H275.93C289.8,5,300.47,16.73,300.47,30.6Z"/><circle class="cls-2" cx="74.33" cy="109.53" r="27.73"/><circle class="cls-2" cx="153.27" cy="109.53" r="27.73"/><circle class="cls-2" cx="232.2" cy="109.53" r="27.73"/><path class="cls-3" d="M221.53,93.53v156.8a26,26,0,0,0,25.6,25.6H383.67L483.93,328.2V275.93h7.47a26,26,0,0,0,25.6-25.6V93.53a26,26,0,0,0-25.6-25.6H246.07C232.2,67.93,221.53,79.67,221.53,93.53Z"/><circle class="cls-2" cx="447.67" cy="172.47" r="27.73"/><circle class="cls-2" cx="368.73" cy="172.47" r="27.73"/><circle class="cls-2" cx="289.8" cy="172.47" r="27.73"/><path class="cls-4" d="M376.2,282.33V440.2a26,26,0,0,1-25.6,25.6H266.33L227.93,517l-38.4-52.27h-83.2a26,26,0,0,1-25.6-25.6V282.33a26,26,0,0,1,25.6-25.6H351.67C365.53,256.73,376.2,268.47,376.2,282.33Z"/><circle class="cls-2" cx="306.87" cy="361.27" r="27.73"/><circle class="cls-2" cx="229" cy="361.27" r="27.73"/><circle class="cls-2" cx="150.07" cy="361.27" r="27.73"/></svg>