<svg id="Layer_1" data-name="Layer 1" xmlns="http://www.w3.org/2000/svg" viewBox="0 0 438.04 501.82"><defs><style>.cls-1{fill:#f8f7f9;}.cls-2{fill:#ffd8b7;}.cls-3{fill:#efc597;}.cls-4{fill:#ee562f;}.cls-5{fill:#33ebc9;}.cls-6{fill:#b5f8eb;}.cls-7{fill:#6e44ff;}.cls-8{fill:#ffc2d4;}.cls-9{fill:#f17455;}.cls-10{fill:#12130f;}</style></defs><path class="cls-1" d="M219,5.82C101.36,5.82,6,101.47,6,219.45A213.5,213.5,0,0,0,88.21,388.07h.35V359.43l-.15-.11.15-.2v.31c24.69,17.66,53.09,36.45,83.8,42.95l94.3,1.83c28.48-6.13,55-25.68,78.32-41.51l.2.93v27.95c1.56-1.15,3.09-2.32,4.61-3.51A213.5,213.5,0,0,0,432,219.45c0-118-95.36-213.63-213-213.63Z"/><path class="cls-2" d="M156.77,313.45A84.23,84.23,0,0,1,137.34,275l-2.14-10h0v-57h-4.94a47.73,47.73,0,0,1,38.57-46.58c12-2.3,27-8.66,38.08-16.66l.43-.47.37.33A82.87,82.87,0,0,0,250,164.83a151.88,151.88,0,0,0,18.19,1.72,41.92,41.92,0,0,1,40.51,41.88h4.46a16.78,16.78,0,0,1,0,33.56h-4.46l-7.06,33a83.95,83.95,0,0,1-129.1,52.25q-3-2.05-5.9-4.37a84.38,84.38,0,0,1-9.91-9.46Z"/><path class="cls-3" d="M202.58,327.28q-3-2.05-5.9-4.37A84.12,84.12,0,0,1,167.34,275l-2.14-10h0l-4.94-57a47.73,47.73,0,0,1,38.57-46.58,97.14,97.14,0,0,0,21.83-7.3,83.67,83.67,0,0,1-13-9.5l-.37-.33-.43.47c-11.11,8-26.09,14.36-38.08,16.66a47.73,47.73,0,0,0-38.57,46.58h4.94v57h0l2.14,10a84.12,84.12,0,0,0,29.34,47.88q2.85,2.31,5.9,4.37a83.75,83.75,0,0,0,61.93,13A83.54,83.54,0,0,1,202.58,327.28Z"/><path class="cls-4" d="M402.88,442.3v53.52H35.12V442.3a54.16,54.16,0,0,1,53.09-54.23l.35.27v31l-.15.21a224.65,224.65,0,0,0,257,3.1l-.2-.3V391.58c1.56-1.15,3.09-2.32,4.61-3.51a54.16,54.16,0,0,1,53.09,54.23Z"/><path class="cls-5" d="M345.18,422.33l.2.3a224.65,224.65,0,0,1-257-3.1l.15-.21v-31a212.55,212.55,0,0,0,256.62,3.24Z"/><path class="cls-6" d="M172.36,396.38A224.46,224.46,0,0,0,345,362.7l.2.93v27.95a212.55,212.55,0,0,1-256.62-3.24V359.43a223.49,223.49,0,0,0,83.8,36.95Z"/><path class="cls-7" d="M331.13,283.72c8.59,42.44-21.52,82.92-64.47,86.78V327.61l-.22-.33A84.2,84.2,0,0,0,301.68,275l7.06-33h4.46a16.5,16.5,0,0,0,8.95-2.6Z"/><path class="cls-7" d="M234.42,60.74l-34.78-.17a80.93,80.93,0,0,0-80.82,81.05h0v67.08l0,.1a28.26,28.26,0,0,1,6.48-.75h5a47.73,47.73,0,0,1,38.57-46.58c12-2.3,27-8.66,38.08-16.66l.43-.47.37.33A82.87,82.87,0,0,0,250,164.83a151.88,151.88,0,0,0,18.19,1.72,41.92,41.92,0,0,1,40.51,41.88h4.46a16.88,16.88,0,0,1,6.43,1.28V146.2a85.33,85.33,0,0,0-85.21-85.46Z"/><path class="cls-3" d="M266.44,327.28H172.58l-.22.33v68.77a226.36,226.36,0,0,0,94.3-.17v-68.6Z"/><path class="cls-7" d="M166.68,322.91A84.12,84.12,0,0,1,137.34,275l-2.14-10h-9.92a28.27,28.27,0,0,1-13.89-3.64l-4.52,22.34c-8.63,42.58,21.72,83.18,64.89,86.82h.6V327.61l.22-.33q-3-2.05-5.9-4.37Z"/><path class="cls-4" d="M130.28,208.06h4.94v57h-9.94a28.42,28.42,0,0,1-28.4-28.44v-.08a28.46,28.46,0,0,1,28.44-28.44Z"/><path class="cls-8" d="M36,219.45C36,106.53,123.36,14.08,234,6.36c-5-.35-10-.54-15-.54C101.36,5.82,6,101.47,6,219.45A213.5,213.5,0,0,0,88.21,388.07h.35V360A213.19,213.19,0,0,1,36,219.45Z"/><path class="cls-9" d="M88.56,397.6v-9.26l-.35-.27A54.16,54.16,0,0,0,35.12,442.3v53.52h30V442.3a54.23,54.23,0,0,1,23.44-44.7Z"/><path class="cls-10" d="M188,223.68a6,6,0,0,0-6,6,7.54,7.54,0,0,1-15.08,0,6,6,0,0,0-12,0,19.54,19.54,0,1,0,39.08,0h0A6,6,0,0,0,188,223.68Z"/><path class="cls-10" d="M278.1,223.68a6,6,0,0,0-6,6,7.54,7.54,0,1,1-15.08,0v0a6,6,0,1,0-12,0,19.54,19.54,0,1,0,39.08,0v0A6,6,0,0,0,278.1,223.68Z"/><path class="cls-10" d="M59.3,148.15a6,6,0,0,0-7.81,3.31h0a180.85,180.85,0,0,0-13.15,68,6,6,0,0,0,12,0A168.64,168.64,0,0,1,62.62,156,6,6,0,0,0,59.3,148.15Z"/><path class="cls-10" d="M53.4,251.69a6,6,0,0,0-11.81,2.12c0,.05,0,.1,0,.15a181.49,181.49,0,0,0,5,19.77A6,6,0,1,0,58,270.14h0a169.9,169.9,0,0,1-4.64-18.45Z"/><path class="cls-10" d="M364.08,384.07q5-4.5,9.86-9.32c85.49-85.9,85.46-224.73-.06-310.6-85.52-85.53-224.19-85.54-309.72,0A220.22,220.22,0,0,0,64,374.75c3.22,3.22,6.6,6.32,10,9.32A60.35,60.35,0,0,0,29.33,442.3v53.52a5.83,5.83,0,0,0,5.64,6H402.88c3.32,0,6.45-2.69,6.45-6V442.3A60.21,60.21,0,0,0,364.08,384.07ZM11.89,219.45C11.89,105,104.8,11.82,218.94,11.82S426,105,426,219.45a206.39,206.39,0,0,1-74.71,159.66V363.63a6.77,6.77,0,0,0-.21-1.26l-.24-.93a6,6,0,0,0-7.18-4.59,6.1,6.1,0,0,0-2.08.89,217.29,217.29,0,0,1-69.29,31v-13a78.64,78.64,0,0,0,65.17-90.12c-.17-1-.36-2.09-.57-3.12l-8.21-40.73a22.62,22.62,0,0,0,7-16.59,23.37,23.37,0,0,0-10.44-19v-60c0-50.43-40.76-91.34-91-91.34l-14.83,0H199.64c-47.87,0-87.31,38.81-87.31,86.81v62.78c-12,5-21.7,17.52-21.7,32.17a34.55,34.55,0,0,0,14,27.58l-3.65,18.37a78.59,78.59,0,0,0,61.33,92.69c1.35.27,2.71.51,4.07.72v12.91a217,217,0,0,1-73-33.42,6,6,0,0,0-8.42-1.05,6.18,6.18,0,0,0-1.2,1.25l-.26.2a8,8,0,0,0-1.09,4.82v14.8a208.1,208.1,0,0,1-70.44-156ZM219,427.08A206.76,206.76,0,0,1,94.33,385.26V370.75a231.41,231.41,0,0,0,245,2.82v14.84A206.28,206.28,0,0,1,219,427.08Zm120.37-23.95v16.44a219.32,219.32,0,0,1-245-3.05V400.23c37,25.25,79.52,38.85,124.63,38.85A219.16,219.16,0,0,0,339.33,403.13ZM313.21,235.82h-4.47a6.08,6.08,0,0,0-5.86,4.83l-7.07,33.09a78.53,78.53,0,0,1-76.3,62.09,80.94,80.94,0,0,1-47.51-16h18.32A13.36,13.36,0,0,0,202,326.75a13.19,13.19,0,0,0,13.1-13.21,13,13,0,0,0-13-13H202c-5.06,0-9.46,2.26-11.64,7.26H159.57A81,81,0,0,1,143.27,274l-1.94-9.5V208.06a6,6,0,0,0-4.53-5.8A41.69,41.69,0,0,1,170,167.37c14.65-2.81,27.25-7.88,37.5-15a88.71,88.71,0,0,0,41.59,18.42,157.7,157.7,0,0,0,18.92,1.8,36,36,0,0,1,34.72,36.07,6.16,6.16,0,0,0,6,6.2h4.46a10.5,10.5,0,0,1,0,21Zm12,49.09a66.81,66.81,0,0,1-52.42,78.6l-.5.1V330.23c1-.86,2.49-1.74,3.62-2.65a90.8,90.8,0,0,0,31.52-51.29l6.09-28.3a22.57,22.57,0,0,0,4.1-.45Zm-64.92,52.73v53.74a220.8,220.8,0,0,1-82,.09V337.64a90.56,90.56,0,0,0,41,10A87.37,87.37,0,0,0,260.33,337.64Zm-115.7-29.82h-5.45c-4.35,0-7.85-3.94-7.85-8.32V275.37l.17,1.1A96.43,96.43,0,0,0,144.63,307.82ZM313.33,198.1c-4-21-22.63-36.74-45-37.54a142.52,142.52,0,0,1-17.39-1.66,76.72,76.72,0,0,1-39.22-18.7,79.2,79.2,0,0,1-26.16-52.59,6,6,0,1,0-11.94,1A91.18,91.18,0,0,0,198.42,144c-8.47,5.42-19,9.33-30.94,11.62-22.67,4.36-39.15,22.8-43.15,45.24v-59.2c0-41.39,34.06-74.81,75.31-74.81h19.8l14.83,0a79.2,79.2,0,0,1,79.06,79.33h0Zm-188,15.72h2.9a2.62,2.62,0,0,1,1.11.51v44.49h-4a22.5,22.5,0,0,1,0-45Zm-12.58,71.09,3.11-15.23c1.13.33,2.48.6,3.48.8v29c0,11,8.88,20.31,19.85,20.31h15a75.45,75.45,0,0,0,8.73,7.94c1.13.92,2.44,1.61,3.44,2.47v33.55a67.8,67.8,0,0,1-41.59-25.55,66.87,66.87,0,0,1-12-53.32ZM397.33,489.82h-65V463.64a6,6,0,0,0-12,0v26.18h-202V463.64a6,6,0,0,0-12,0v26.18h-65V442.3a47.85,47.85,0,0,1,41-47.74V418.2c0,2.28.45,4.76,2.48,6.21a230.93,230.93,0,0,0,264,3.18c2.16-1.47,2.52-4.11,2.52-6.51V394.6c.18-.13.34-.27.51-.4,25.37,1.78,45.49,22.66,45.49,48.1Z"/><path class="cls-10" d="M384.14,187.7c.89,4.67,1.59,9.44,2.07,14.19a6,6,0,0,0,11.94-1.23h0c-.52-5.08-1.27-10.2-2.22-15.2a6,6,0,0,0-11.79,2.24Z"/><path class="cls-10" d="M355.53,121A169,169,0,0,1,368,141.3c2.4,4.59,4.61,9.34,6.57,14.15a6,6,0,0,0,11.24-4.22c0-.11-.09-.22-.14-.33-2.1-5.14-4.47-10.24-7-15.15A180.91,180.91,0,0,0,345.23,90.6a6,6,0,0,0-8.42,8.55A169.15,169.15,0,0,1,355.53,121Z"/></svg>