<svg id="Слой_1" data-name="Слой 1" xmlns="http://www.w3.org/2000/svg" viewBox="0 0 293.33 504.12"><defs><style>.cls-1{fill:#6e44ff;}.cls-2{fill:#4f1fff;}.cls-3{fill:#ee562f;}.cls-4{fill:#e23c12;}.cls-5{fill:#02a9f4;}.cls-6{fill:#33ebc9;}.cls-7{fill:#14ccaa;}.cls-8{fill:#12ba9b;}</style></defs><path id="Shape" class="cls-1" d="M284.9,112.57v4.28a44.08,44.08,0,0,1-1.35,7.39c-7.13,26.85-32.65,44.65-62.53,46.33a84.55,84.55,0,0,1-27.61-2.69c-40.37-10.66-65.55-47.51-56.32-82.34S186.44,31.24,226.73,42C262.65,51.46,286.66,81.6,284.9,112.57Z"/><path id="Shape-2" data-name="Shape" class="cls-2" d="M226.73,42a85.72,85.72,0,0,0-34.67-1.93A95.51,95.51,0,0,1,201.55,42c35.92,9.57,59.76,39.7,58.17,70.67v4.28a44.08,44.08,0,0,1-1.35,7.39,64.7,64.7,0,0,1-55.65,45.41,84.17,84.17,0,0,0,18.22.84c29.88-1.68,55.4-19.48,62.53-46.33a43.07,43.07,0,0,0,1.34-7.39v-4.28c1.85-31-22.16-61.11-58.08-70.59Z"/><path id="Shape-3" data-name="Shape" class="cls-3" d="M284.9,112.57c1.76-31-22.25-61.11-58.17-70.59-40.29-10.66-80.49,8.9-89.64,43.65S153,157.31,193.41,168a84.5,84.5,0,0,0,27.19,2.68c18.55,43.4,46.25,120.28,43,167.87a25.18,25.18,0,0,1-49,4.7L203.48,305,193,308a51.6,51.6,0,0,1-9.91,4.61,129.39,129.39,0,0,1-65.63,3.78,146,146,0,0,1-75.54-33.57v-1.93a165,165,0,0,1,16.78-98.79S17.4,106.53,28.31,35.85a25.93,25.93,0,0,1,51.45,4.79,97.88,97.88,0,0,0,20.65,65.47,47.58,47.58,0,0,1,2-14.86,127,127,0,0,1,10.66-34c16.79-34.58,55.57-51.12,92.33-47.93C256.78,13.19,289.34,63.55,284.9,112.57Z"/><path id="Shape-4" data-name="Shape" class="cls-4" d="M193.41,167.88c-40.37-10.66-65.55-47.51-56.32-82.34a64.78,64.78,0,0,1,55-45.57c-36.93-5.54-71.76,13.51-80.15,45.57-9.24,34.83,15.94,71.68,56.32,82.34a84.51,84.51,0,0,0,27.19,2.69C214,214,241.67,290.85,238.4,338.44a24.51,24.51,0,0,1-12.34,19.72,25.18,25.18,0,0,0,37.52-19.72c3.27-47.17-24.43-124.06-43-167.87a84.51,84.51,0,0,1-27.19-2.69Z"/><path id="Shape-5" data-name="Shape" class="cls-4" d="M205.75,8.83a107.22,107.22,0,0,0-22.08.42,83.91,83.91,0,0,1,60.27,39.28,70.09,70.09,0,0,1,41,64C289.34,63.55,256.78,13.19,205.75,8.83Z"/><path id="Shape-6" data-name="Shape" class="cls-5" d="M100.66,106v-.42"/><path id="Shape-7" data-name="Shape" class="cls-6" d="M185.94,386.11a121.72,121.72,0,0,1-8.4,50.36,42,42,0,0,1-67.14,16.79,46.58,46.58,0,0,1-8.4-24.59,255.85,255.85,0,0,1-1.76-39,62,62,0,0,1-23.42,21.65c-16.78,8.4-58.75,0-67.14-25.18-7.39-22.24,24.5-90.48,32-106V282a146,146,0,0,0,75.55,33.58,129.62,129.62,0,0,0,65.63-3.78A730.89,730.89,0,0,1,185.94,386.11Z"/><path id="Shape-8" data-name="Shape" class="cls-7" d="M183.08,312.08a105.3,105.3,0,0,1-24.67,5.46c1.34,14.94,2.35,36.84,2.35,68.82a121.72,121.72,0,0,1-8.4,50.36,44.13,44.13,0,0,1-26.27,25.18c16.79,5,39.12,1.6,51.45-25.18a121.72,121.72,0,0,0,8.4-50.36A730.92,730.92,0,0,0,183.08,312.08Z"/><path id="Shape-9" data-name="Shape" class="cls-8" d="M76.82,411.29a37,37,0,0,1-50.36,33.58c-25.18-8.4-16.78-58.76-16.78-58.76C18.07,411.29,60,419.69,76.82,411.29Z"/><path id="Shape-10" data-name="Shape" class="cls-8" d="M177.54,436.47s-3.27,66.14-50.36,57.83C83,486.58,99.65,434.88,102,428.75a46.63,46.63,0,0,0,8.4,24.51,42,42,0,0,0,67.14-16.79Z"/><path id="Shape-11" data-name="Shape" class="cls-6" d="M137.59,212.7l16.79,4.2a8.4,8.4,0,0,1,6.38,8.39v16.29A8.39,8.39,0,0,1,150.35,250l-16.79-4.2a8.4,8.4,0,0,1-6.38-8.39V220.84a8.41,8.41,0,0,1,10.41-8.14Z"/><path d="M291.78,85.54C284.31,38.45,249.9,4.21,206.5.43S122.57,17.89,105.78,53.14A132.87,132.87,0,0,0,96,81.68a93.32,93.32,0,0,1-7.55-41.29,34.33,34.33,0,0,0-68.16-6.3C10.35,97.88,40.9,164.36,49.46,181.48a175.74,175.74,0,0,0-16.12,97.36C18.07,310.57-4.17,362.61,1.28,386.53A129.3,129.3,0,0,0,.19,411.71h0a6.85,6.85,0,0,1,0,.91c-.18,2.47.5,4.87.82,7.31a40.15,40.15,0,0,0,1.57,7.91,5.15,5.15,0,0,1,.22.88,34,34,0,0,0,21,24.54,45.51,45.51,0,0,0,61.44-36.68,55.56,55.56,0,0,0,7-4.95,145.52,145.52,0,0,0,1.35,16.78c-22.41,71,39.7,89.23,68.23,66.48,22.08-17.63,24.35-55.23,24.51-57.41,1-2.24,1.84-4.52,2.64-6.82,0-.19.09-.38.14-.56a4.06,4.06,0,0,1,.69-1.8,5.06,5.06,0,0,1,.17-.75,5.3,5.3,0,0,1,.44-1.66,7.72,7.72,0,0,1,.12-.82c.18-1.1.54-2.13.78-3.21a94.71,94.71,0,0,0,1.22-9.51,3,3,0,0,1,.08-.41,5.65,5.65,0,0,1,0-1.09A576.45,576.45,0,0,0,192,317.2c3.36-1.59,5.37-2.85,5.71-3l8.39,30.47a33.57,33.57,0,0,0,65.55-6.3c3.28-46.5-21.73-118-39.36-161.07C274.24,168.89,300.09,136.83,291.78,85.54ZM29.15,437.14c-8.81-2.93-11.75-15.69-12.34-27.95a75,75,0,0,0,49.1,13.68A29.29,29.29,0,0,1,29.15,437.14Zm99.46,49.11a25.19,25.19,0,0,1-23.08-25.86,50.34,50.34,0,0,0,56.23,6.13C155,481.63,144.64,489,128.61,486.25Zm16.2-31.06a34.16,34.16,0,0,1-28-7.64c-11.84-11.08-8.15-76.55-6.38-93.92A8.44,8.44,0,0,0,93.61,352c0,.67-1.51,16.12-1.93,35.25a52.57,52.57,0,0,1-18.63,16.87c-13.85,7.22-49.11-1.17-55-20.31-3.69-11.16,6.8-46.08,26.44-88.8A172,172,0,0,0,176,323.08c1.26,16.78,1.93,37.6,1.93,63.28C178,414.06,171.92,450.24,144.81,455.19ZM255.18,337.51a16.72,16.72,0,0,1-32.81,2.86l-28-99.05a8.39,8.39,0,1,0-16.11,4.7l15.36,53.22a9.09,9.09,0,0,0-4.87,1.17s-23.67,14.86-69.58,7.22a145.1,145.1,0,0,1-69-29.54,157.8,157.8,0,0,1,15.78-92.16,8.4,8.4,0,0,0,0-8.4c0-.67-39.87-74-29.46-140.84a17.62,17.62,0,0,1,30-9.23A16.78,16.78,0,0,1,71.2,39.8,107.31,107.31,0,0,0,94,111.31a8.39,8.39,0,0,0,14.43-8.39c0-2.94,1.76-9.07,2.1-11a119.78,119.78,0,0,1,10.16-31.47C143.21,13.86,220.43-3,258.12,47.18,209.77,13.61,142.29,33,129,83.44c-12.43,47,29.79,95.44,86.2,95.77C231.93,220.26,258.37,293,255.18,337.51Zm-8.89-182h0A76,76,0,0,1,154,131c-31.73-45.74,13.93-96,70.67-80.66S295.72,131.45,246.29,155.54Z"/><path id="Shape-12" data-name="Shape" d="M164.62,273.56a249.76,249.76,0,0,1-44.24-4.29,8.55,8.55,0,0,0-3.27,16.79,270.62,270.62,0,0,0,47.34,4.62,8.4,8.4,0,0,0,0-16.79Z"/><path id="Shape-13" data-name="Shape" d="M81.69,274.31a8.43,8.43,0,0,0,7.47-15.11,45.52,45.52,0,0,1-11-7A8.43,8.43,0,0,0,66.08,264a59.81,59.81,0,0,0,15.61,10.32Z"/><path id="Shape-14" data-name="Shape" d="M200.88,205.4a8.41,8.41,0,0,0,.92-16.79c-67.9-3.77-80.91-48.17-81.42-50.36a8.41,8.41,0,1,0-16.28,4.2C104.77,145.14,120.13,201,200.88,205.4Z"/><path id="Shape-15" data-name="Shape" d="M131.55,253.41a105.2,105.2,0,0,0,20.81,4.7,16.79,16.79,0,0,0,16.79-16.79V225a16.79,16.79,0,0,0-12.76-16.28l-16.78-4.2a16.79,16.79,0,0,0-20.82,16.28v16.29A16.79,16.79,0,0,0,131.55,253.41ZM152.36,225v16.28l-16.78-4.19V220.84Z"/><path id="Shape-16" data-name="Shape" d="M211.12,58.77c-17.46,0-50.36,8.39-50.36,42a8.39,8.39,0,1,0,16.78,0c0-24.59,32.07-25.18,33.58-25.18a8.39,8.39,0,0,0,0-16.78Z"/></svg>