<?xml version="1.0" encoding="utf-8"?>
<!-- Generator: Adobe Illustrator 24.1.2, SVG Export Plug-In . SVG Version: 6.00 Build 0)  -->
<svg version="1.1" id="Слой_1" xmlns="http://www.w3.org/2000/svg" xmlns:xlink="http://www.w3.org/1999/xlink" x="0px" y="0px"
	 viewBox="0 0 512 512" style="enable-background:new 0 0 512 512;" xml:space="preserve">
<style type="text/css">
	.st0{fill:#33EBC9;}
	.st1{fill:#6E44FF;}
	.st2{fill:#EE562F;}
</style>
<g id="outline">
	<g id="XMLID_1_">
		<g>
			<path d="M470.7,115.7c19.1,29.5-0.6,86.1-55.4,145.2c-1,12.5-3.5,24.9-7.4,36.9c-27.3,83.9-117.4,129.7-201.3,102.4
				c-17.7,7.3-35.8,13.4-54.2,18.4c-18.4,5.2-37.4,8-56.5,8.5c-26.4,0-44.9-7.6-54.7-22.7c-22.1-34,11.7-96.5,55.3-144.1
				c-0.3-4.1-0.6-8.1-0.6-12.3c-0.1-29.3,7.9-58,23.1-83c45.7-75.4,143.8-99.6,219.3-53.9C396,95.3,451.2,85.6,470.7,115.7z
				 M415.4,236.3c38.7-45.4,57-88.6,41.9-112c-12.8-19.8-60.4-11.8-101.6-1.3C390.5,150.8,412.2,191.9,415.4,236.3z M338.3,266.3
				c16.7-15.3,38.8-23.3,61.5-22.3c-0.2-8-1-16-2.6-23.9c-12.2,2.6-24.7,3.9-37.2,3.9c-21.4,0-26.8,7.3-34.2,17.5
				c-9.9,13.6-22.2,30.5-69.8,30.5c-46.2,1.4-92,8.9-136.2,22.3c1.7,5,3.7,9.9,6,14.7c15-5.3,31.3-5.5,46.5-0.8
				c9.1,2.3,18.4,3.6,27.8,3.8c5.5,0.1,10.8-2.5,14.2-6.8c7.8-7.2,18.6-17.2,49.8-17.2c7.8,0,14.3,0.3,20.1,0.5
				C307.7,289.5,314.8,289.9,338.3,266.3z M393.3,204.6c-3.4-10.7-8.1-20.9-13.9-30.5c-8.3,3.3-17,5.5-25.8,6.4
				c-13.2,1.4-26,5-38,10.6c-9.4,4.7-17.4,11.9-23.1,20.8c-7.3,13.1-21.5,20.9-36.5,20.1c-61.4,0-92.1,7.3-143.8,20.5
				c0.3,8.9,1.3,17.7,3.2,26.4c45.6-13.8,92.9-21.5,140.6-22.9c39.5,0,47.9-11.6,56.9-23.9c8.2-11.3,17.5-24.1,47.1-24.1
				C371.2,208.1,382.3,206.9,393.3,204.6z M393.3,260.2c-16.2,0.3-31.7,6.5-43.6,17.4c-27.4,27.4-39.4,28-66.3,26.9
				c-5.6-0.2-11.9-0.5-19.4-0.5c-25,0-32.1,6.6-39,12.9c-6.4,7.1-15.5,11.2-25,11.1c-10.5-0.2-21-1.6-31.2-4.2
				c-11.4-3.8-23.8-4-35.3-0.6c17,27.6,42.7,48.6,73,59.8c35.2-14.9,69.1-32.9,101.2-53.8C338.5,309.3,367.2,286.2,393.3,260.2z
				 M396.2,280.2c-24.6,23.3-51.4,44.2-79.9,62.5c-27.3,17.7-55.8,33.4-85.3,47c8.2,1.5,16.6,2.3,25,2.3
				C323,391.9,381.2,345.6,396.2,280.2z M370.1,160.5c-7.4-9.7-16-18.3-25.6-25.9C327.6,145.3,299.4,160,272,160
				c-16.9,0-22.5,8.1-29.6,18.2c-6.7,9.7-15.1,21.8-34.4,21.8c-23.3,0.3-46.4,4.6-68.3,12.8c-8.1,2.9-16.5,5.2-24.9,7.1
				c-1,5.3-1.8,10.6-2.2,16c46.6-13.6,94.9-20.3,143.4-19.9c13.7,0,17-4.5,23.6-13.5c7.2-10.9,17.1-19.8,28.8-25.7
				c13.5-6.4,27.9-10.5,42.7-12.1C357.6,164,364,162.6,370.1,160.5z M329.7,124.9c-0.1-0.2-0.2-0.4-0.3-0.6
				C307.2,111.1,281.9,104,256,104c-61.9,0.1-116.8,39.7-136.5,98.3c4.8-1.3,9.8-3,15.2-4.7c23.5-8.7,48.3-13.3,73.3-13.6
				c10.4,0,14.5-5.1,21.3-14.9C237,157.9,246.7,144,272,144C292.5,142.6,312.4,136,329.7,124.9z M148.5,403.1
				c11.8-3.1,24.2-7.1,36.9-11.7c-43.9-21.7-75.6-62.3-85.8-110.2C60.5,327.3,41.3,375,54.7,395.6C66,413,100.2,415.8,148.5,403.1z"
				/>
			<path class="st0" d="M399.8,244c-22.6-1-44.7,7-61.5,22.3c-23.5,23.5-30.7,23.2-54.2,22.2c-5.8-0.3-12.3-0.5-20.1-0.5
				c-31.3,0-42,9.9-49.8,17.2c-3.4,4.4-8.6,6.9-14.2,6.8c-9.4-0.2-18.7-1.5-27.8-3.8c-15.2-4.8-31.5-4.5-46.5,0.8
				c-2.3-4.8-4.3-9.7-6-14.7c44.2-13.4,90-20.9,136.2-22.3c47.6,0,59.9-16.9,69.8-30.5c7.4-10.2,12.7-17.5,34.2-17.5
				c12.5,0,25-1.3,37.2-3.9C398.8,228,399.6,236,399.8,244z"/>
			<path class="st1" d="M379.4,174.1c5.8,9.6,10.5,19.8,13.9,30.5c-11,2.3-22.1,3.4-33.3,3.4c-29.6,0-38.9,12.8-47.1,24.1
				c-8.9,12.3-17.4,23.9-56.9,23.9c-47.7,1.4-94.9,9.1-140.6,22.9c-1.9-8.7-2.9-17.5-3.2-26.4C163.9,239.3,194.6,232,256,232
				c15,0.9,29.2-6.9,36.5-20.1c5.7-8.9,13.6-16.1,23.1-20.8c12-5.6,24.8-9.2,38-10.6C362.4,179.6,371.1,177.4,379.4,174.1z"/>
			<path class="st2" d="M349.7,277.7c11.9-11,27.4-17.1,43.6-17.4c-26.1,26-54.8,49.1-85.6,69.1c-32.1,20.9-65.9,38.8-101.2,53.8
				c-30.4-11.2-56.1-32.3-73-59.8c11.6-3.4,23.9-3.2,35.3,0.6c10.2,2.6,20.7,4,31.2,4.2c9.6,0.1,18.7-3.9,25-11.1
				c6.9-6.4,14-12.9,39-12.9c7.5,0,13.8,0.3,19.4,0.5C310.3,305.7,322.3,305.1,349.7,277.7z M248,344v-16h-16v16H248z M208,360v-16
				h-16v16H208z"/>
			<path class="st2" d="M316.4,342.7c28.5-18.3,55.3-39.2,79.9-62.5C381.2,345.6,323,391.9,256,392c-8.4,0-16.7-0.8-25-2.3
				C260.6,376.1,289.1,360.4,316.4,342.7z"/>
			<path class="st0" d="M344.5,134.7c9.6,7.5,18.2,16.2,25.6,25.9c-6.2,2-12.5,3.4-19,4.2c-14.8,1.7-29.2,5.8-42.7,12.1
				c-11.7,5.9-21.6,14.7-28.8,25.7c-6.6,9-9.9,13.5-23.6,13.5c-48.5-0.4-96.8,6.3-143.4,19.9c0.4-5.4,1.2-10.7,2.2-16
				c8.4-1.9,16.8-4.3,24.9-7.1c21.9-8.2,45-12.5,68.3-12.8c19.3,0,27.7-12.1,34.4-21.8c7.1-10.2,12.7-18.2,29.6-18.2
				C299.4,160,327.6,145.3,344.5,134.7z"/>
			<path class="st1" d="M329.4,124.3c0.1,0.2,0.2,0.4,0.3,0.6C312.4,136,292.5,142.6,272,144c-25.3,0-35,13.9-42.7,25.1
				c-6.8,9.8-10.8,14.9-21.3,14.9c-25,0.3-49.8,4.9-73.3,13.6c-5.4,1.8-10.4,3.4-15.2,4.7c19.7-58.7,74.6-98.3,136.5-98.3
				C281.9,104,307.2,111.1,329.4,124.3z M224,144v-16h-16v16H224z M192,168v-16h-16v16H192z"/>
			<rect x="232" y="328" width="16" height="16"/>
			<rect x="208" y="128" width="16" height="16"/>
			<rect x="192" y="344" width="16" height="16"/>
			<rect x="176" y="152" width="16" height="16"/>
		</g>
		<g>
		</g>
	</g>
</g>
</svg>
