<?xml version="1.0" encoding="utf-8"?>
<!-- Generator: Adobe Illustrator 24.1.2, SVG Export Plug-In . SVG Version: 6.00 Build 0)  -->
<svg version="1.1" id="Capa_1" xmlns="http://www.w3.org/2000/svg" xmlns:xlink="http://www.w3.org/1999/xlink" x="0px" y="0px"
	 viewBox="0 0 512 512" style="enable-background:new 0 0 512 512;" xml:space="preserve">
<style type="text/css">
	.st0{fill:#FE5F55;}
	.st1{fill:#5DD9C1;}
	.st2{fill:#8367C7;}
	.st3{fill:#E9D2F4;}
	.st4{fill:#8367C7;stroke:#000000;stroke-width:3;stroke-miterlimit:10;}
	.st5{fill:#E9D2F4;stroke:#000000;stroke-width:3;stroke-miterlimit:10;}
	.st6{fill:#FE5F55;stroke:#000000;stroke-width:3;stroke-miterlimit:10;}
</style>
<g>
	<g id="XMLID_1_">
		<g>
			<path d="M502.3,462.4v42.1c0,4.1-3.4,7.5-7.5,7.5H17.2c-4.1,0-7.5-3.4-7.5-7.5v-42.1c0-24.2,6.8-47.8,19.7-68.2
				c1.5-2.4,3.1-4.7,4.7-7V259.5c-12.6-5.3-21.4-17.7-21.4-32.1v-59.1c0-14.4,8.9-26.9,21.4-32.1v-0.5c0-30.6,24.9-55.5,55.5-55.5
				h6.2c-3.6,4.2-5.3,7.1-3.9,7.7c1.4,2.2,24.9-14.6,43.4-28.2c-0.1,0.2-0.3,0.3-0.4,0.5C94.2,95.4,71,146.4,71,200
				c0,102,83,185,185,185s185-83,185-185c0-102-83-185-185-185c-35.1,0-69.2,9.9-98.7,28.5c-1.3,0.8-10.8,8-22.1,16.3
				c2.1-2.8-2.5-7.4,0.3-10.1c21.8-21.3,22.2-23.9,15.8-20.1C182.8,10.2,218.9,0,256,0c65.5,0,123.7,31.6,160.2,80.4l6.2-0.1
				c30.6,0,55.5,24.9,55.5,55.5v0.5c12.6,5.2,21.4,17.6,21.4,32.1v59.1c0,14.4-8.9,26.9-21.4,32.1v127.5
				C493.5,408.5,502.3,434.7,502.3,462.4z M487.3,497v-34.6c0-42.5-23.4-80.8-61-100.4c-22.5,21.3-47.6,38.2-74.7,50.5
				c-31.1,14.1-63.4,21.2-95.9,21.2c-32.3,0-64.4-7-95.4-21c-27.2-12.2-52.4-29.1-75-50.4c-37.4,19.6-60.5,57.8-60.5,100.1V497h74.4
				v-10.2c0-17.9,14.5-32.4,32.4-32.4h31.6c1.5,0,14.2,0,30,0.2c-4.1,0-7.5,3.2-7.5,7.3c0,3.7,2.9,7,6.4,7.5
				c-15.3,0.3-27.4,0-28.9,0h-31.6c-9.6,0-17.4,7.8-17.4,17.4V497h283.8v-10.2c0-9.6-7.8-17.4-17.4-17.4H193.1c-0.4,0-0.8,0-1.1,0
				c28.8-0.5,68.6-2.6,67.8-10.9c-0.3-2.6-38.3-3.6-66.6-3.9l187.4-0.2c17.9,0,32.4,14.5,32.4,32.4V497H487.3z M484.3,227.4v-59.1
				c0-10.9-8.9-19.8-19.8-19.8h-15.2c4.4,16.4,6.7,33.6,6.7,51.4c0,16.3-2,32.1-5.6,47.2h14.2C475.4,247.2,484.3,238.3,484.3,227.4z
				 M462.9,369.9V262.2h-16.8c-5.8,17.8-14.1,34.4-24.4,49.6c4,1.2,7.6,3.4,10.6,6.4c4.8,4.8,7.6,11.7,7.6,18.9
				c0,4.8-1.2,9.4-3.4,13.4C446.3,356,455.1,362.5,462.9,369.9z M444.7,133.6h18.1c-1-20-16.6-36.2-36.4-38.1
				C433.8,107.4,439.9,120.2,444.7,133.6z M425,337.2c0-3.2-1.2-6.3-3.2-8.3c-2.6-2.6-6.4-3.8-10.1-3c-0.1,0-0.3,0-0.4,0.1
				c-36.7,45.1-92.7,74-155.2,74c-62.1,0-117.7-28.5-154.4-73c-0.1,0-0.2,0-0.3-0.1c-4-1.3-8.2-0.2-11.2,2.7
				c-4.3,4.3-4.2,12.4,0.1,16.6c47.1,46.7,105.8,72.4,165.3,72.4c30.4,0,60.6-6.7,89.8-19.9c27.9-12.6,53.6-30.5,76.4-53.3
				C423.8,343.5,425,340.4,425,337.2z M79.5,319.1c3.2-3.2,7-5.4,11.2-6.7c-10.5-15.4-18.9-32.3-24.8-50.3H49.1V370
				c7.8-7.5,16.5-14,26-19.3C69.9,340.7,71.3,327.4,79.5,319.1z M67.4,133.6c4.7-13.3,10.8-26.1,18.2-38.1
				c-19.7,2-35.3,18.2-36.3,38.1H67.4z M62.7,148.6H47.5c-10.9,0-19.8,8.9-19.8,19.8v59.1c0,10.9,8.9,19.8,19.8,19.8h14.1
				C58,232.1,56,216.3,56,200C56,182.5,58.3,165.2,62.7,148.6z"/>
			<path class="st0" d="M487.3,462.4V497h-74.4v-10.2c0-17.9-14.5-32.4-32.4-32.4l-187.4,0.2c0,0,0,0,0,0c-15.8-0.2-28.5-0.2-30-0.2
				h-31.6c-17.9,0-32.4,14.5-32.4,32.4V497H24.7v-34.6c0-42.4,23.1-80.5,60.5-100.1c22.6,21.3,47.8,38.2,75,50.4
				c31,13.9,63.1,21,95.4,21c32.6,0,64.8-7.1,95.9-21.2c27.1-12.2,52.2-29.2,74.7-50.5C463.9,381.6,487.3,419.9,487.3,462.4z"/>
			<path class="st0" d="M484.3,168.4v59.1c0,10.9-8.9,19.8-19.8,19.8h-14.2c3.7-15.1,5.6-30.9,5.6-47.2c0-17.8-2.4-35-6.7-51.4h15.2
				C475.4,148.6,484.3,157.5,484.3,168.4z"/>
			<path class="st1" d="M462.9,262.2v107.7c-7.8-7.5-16.6-14-26.3-19.4c2.2-4,3.4-8.6,3.4-13.4c0-7.2-2.8-14.1-7.6-18.9
				c-3-3-6.7-5.2-10.6-6.4c10.3-15.2,18.5-31.9,24.4-49.6H462.9z"/>
			<path class="st1" d="M462.8,133.6h-18.1c-4.7-13.4-10.9-26.2-18.2-38.1C446.2,97.4,461.8,113.6,462.8,133.6z"/>
			<path class="st1" d="M421.8,328.9c2,2,3.2,5.1,3.2,8.3c0,3.2-1.2,6.3-3.2,8.3c-22.8,22.8-48.5,40.7-76.4,53.3
				c-29.1,13.2-59.3,19.9-89.8,19.9c-59.5,0-118.2-25.7-165.3-72.4c-4.3-4.3-4.3-12.3-0.1-16.6c2.9-3,7.2-4,11.2-2.7
				c0.1,0,0.2,0,0.3,0.1c36.7,44.6,92.3,73,154.4,73c62.6,0,118.5-28.9,155.2-74c0.1,0,0.3,0,0.4-0.1
				C415.4,325.1,419.1,326.2,421.8,328.9z"/>
			<path d="M412.1,152.2v106.2c0,3.8-1.1,7.5-3.3,10.8c-30.1,44.2-88.7,71.7-152.8,71.9c-64.1-0.1-122.7-27.6-152.8-71.9
				c-2.2-3.2-3.3-6.9-3.3-10.8V152.2c0-3.8,1.2-7.5,3.3-10.8c30.1-44.2,88.7-71.7,152.8-71.9c0,0,0,0,0,0
				c64.1,0.1,122.6,27.7,152.8,71.9C411,144.7,412.1,148.4,412.1,152.2z M397.1,258.4V152.2c0-0.8-0.3-1.6-0.7-2.3
				C369,109.8,315.2,84.7,256,84.6v0c-59.2,0.1-113,25.1-140.4,65.3c-0.5,0.7-0.7,1.5-0.7,2.3v106.2c0,0.8,0.3,1.6,0.7,2.3
				C143,300.9,196.8,325.9,256,326c59.2-0.1,113-25.1,140.4-65.3C396.9,260,397.1,259.2,397.1,258.4z"/>
			<path class="st1" d="M397.9,486.8V497H114.1v-10.2c0-9.6,7.8-17.4,17.4-17.4h31.6c1.4,0,13.6,0.2,28.9,0c0.4,0,0.8,0.1,1.1,0
				h187.4C390.1,469.4,397.9,477.2,397.9,486.8z"/>
			<path class="st2" d="M397.1,152.2v106.2c0,0.8-0.3,1.6-0.7,2.3C369,300.9,315.2,325.9,256,326c-59.2-0.1-113-25.1-140.4-65.3
				c-0.5-0.7-0.7-1.5-0.7-2.3V152.2c0-0.8,0.3-1.6,0.7-2.3C143,109.7,196.8,84.7,256,84.6v0c59.2,0.1,113,25.1,140.4,65.3
				C396.9,150.6,397.1,151.4,397.1,152.2z M368,160c2.8-3,2.7-7.8-0.3-10.6C342.8,126,301.1,112,256,111.9
				c-45,0.1-86.8,14.1-111.7,37.4c-3,2.8-3.2,7.6-0.3,10.6c1.5,1.6,3.5,2.4,5.5,2.4c1.8,0,3.7-0.7,5.1-2
				c22.2-20.8,60.1-33.3,101.4-33.4c41.3,0.1,79.3,12.5,101.4,33.4C360.5,163.1,365.2,163,368,160z"/>
			<path class="st3" d="M256,15c102,0,185,83,185,185c0,102-83,185-185,185S71,302,71,200c0-53.6,23.3-104.6,63.8-139.8
				c0.2-0.2,0.3-0.3,0.4-0.5c11.3-8.3,20.7-15.4,22.1-16.3C186.8,24.9,220.9,15,256,15z M412.1,258.4V152.2c0-3.8-1.1-7.5-3.3-10.7
				C378.7,97.3,320.1,69.7,256,69.6c0,0,0,0,0,0c-64.1,0.1-122.6,27.7-152.8,71.9c-2.2,3.2-3.3,6.9-3.3,10.8v106.2
				c0,3.8,1.2,7.5,3.3,10.8c30.1,44.2,88.7,71.7,152.8,71.9c64.1-0.1,122.6-27.7,152.8-71.9C411,266,412.1,262.2,412.1,258.4z"/>
			<path d="M367.7,149.4c3,2.8,3.2,7.6,0.3,10.6c-2.8,3-7.6,3.2-10.6,0.3c-22.2-20.8-60.1-33.3-101.4-33.4
				c-41.3,0.1-79.2,12.5-101.4,33.4c-1.5,1.4-3.3,2-5.1,2c-2,0-4-0.8-5.5-2.4c-2.8-3-2.7-7.8,0.3-10.6C169.2,126,211,112,256,111.9
				C301.1,112,342.8,126,367.7,149.4z"/>
			<path d="M259.7,458.4c0.8,8.3-38.9,10.4-67.8,10.9c-3.5-0.4-6.4-3.7-6.4-7.5c0-4.1,3.3-7.3,7.5-7.3c0,0,0,0,0,0
				C221.4,454.9,259.4,455.8,259.7,458.4z"/>
			<path d="M151.4,29.5c6.3-3.7,6-1.1-15.8,20.1c-2.8,2.7,1.8,7.3-0.3,10.1c-18.5,13.6-42,30.4-43.4,28.2c-1.4-0.6,0.4-3.5,3.9-7.7
				h0c0.1-0.1,0.1-0.2,0.2-0.3c13-15.1,49.1-46.2,53.1-49.1c0,0,0.1-0.1,0.1-0.1c0.1,0,0.2-0.1,0.2-0.1c0.6-0.4,1.2-0.8,1.8-1.1
				C151.3,29.6,151.3,29.5,151.4,29.5z"/>
			<path d="M151.2,29.6c-0.6,0.4-1.2,0.8-1.8,1.1C150.1,30.3,150.7,29.9,151.2,29.6z"/>
			<path d="M125,48.9c1.5-1.3,15.8-12.6,24.1-18c-4,2.8-40.1,34-53.1,49.1C104.4,68.8,114.1,58.3,125,48.9z"/>
			<path d="M96,80c-0.1,0.1-0.1,0.2-0.2,0.3h0C95.8,80.2,95.9,80.1,96,80z"/>
			<path class="st1" d="M90.7,312.5c-4.1,1.2-8,3.5-11.2,6.7c-8.2,8.3-9.6,21.6-4.4,31.6c-9.5,5.3-18.2,11.8-26,19.3V262.2h16.8
				C71.8,280.2,80.2,297.1,90.7,312.5z"/>
			<path class="st1" d="M85.5,95.5c-7.4,12-13.5,24.8-18.2,38.1H49.2C50.2,113.6,65.8,97.5,85.5,95.5z"/>
			<path class="st0" d="M47.5,148.6h15.3C58.3,165.2,56,182.5,56,200c0,16.3,2,32.1,5.6,47.2H47.5c-10.9,0-19.8-8.9-19.8-19.8v-59.1
				C27.7,157.5,36.6,148.6,47.5,148.6z"/>
		</g>
		<g>
		</g>
	</g>
</g>
<circle class="st4" cx="367.6" cy="483.9" r="7.6"/>
<circle class="st5" cx="343.7" cy="483.9" r="7.6"/>
<circle class="st6" cx="319.1" cy="483.9" r="7.6"/>
</svg>
