<?xml version="1.0" encoding="utf-8"?>
<!-- Generator: Adobe Illustrator 24.1.2, SVG Export Plug-In . SVG Version: 6.00 Build 0)  -->
<svg version="1.1" id="Capa_1" xmlns="http://www.w3.org/2000/svg" xmlns:xlink="http://www.w3.org/1999/xlink" x="0px" y="0px"
	 viewBox="0 0 512 512" style="enable-background:new 0 0 512 512;" xml:space="preserve">
<style type="text/css">
	.st0{fill:#33EBC9;}
	.st1{fill:#EE562F;}
	.st2{fill:#FFE1EA;}
</style>
<g>
	<g id="XMLID_1_">
		<g>
			<path class="st0" d="M491.2,20.8c-0.2,2.2-0.5,4.6-0.8,7.3c-0.1,0.7-0.2,1.5-0.3,2.3c-0.4,2.9-0.8,5.9-1.3,9.3
				c-0.1,0.8-0.2,1.6-0.4,2.4c0,0,0,0,0,0c-2.6,16.8-6.9,38.8-14.1,63c-0.4,1.2-0.7,2.4-1.1,3.6l-69.8-69.9
				c26.7-8.3,51-12.9,68.8-15.6c0.4-0.1,0.8-0.1,1.2-0.2c0.8-0.1,1.5-0.2,2.3-0.3c2-0.3,4-0.5,5.8-0.8c0.8-0.1,1.5-0.2,2.3-0.3
				C486.6,21.3,489,21,491.2,20.8z"/>
			<path d="M490.4,28.1c-0.1,0.7-0.2,1.5-0.3,2.3C490.2,29.6,490.3,28.8,490.4,28.1z"/>
			<path d="M488.9,39.6c-0.1,0.8-0.2,1.6-0.4,2.4C488.7,41.2,488.8,40.4,488.9,39.6z"/>
			<path d="M488.5,42.1c-2.5,16.8-6.8,38.8-14.1,63C481.6,80.8,486,58.8,488.5,42.1z"/>
			<path d="M403.5,38.7l69.8,69.9l-69.9-69.9C403.5,38.7,403.5,38.7,403.5,38.7z"/>
			<path d="M457.7,150.6c-1.8,4.1-3.6,8.1-5.5,12C454,158.7,455.9,154.7,457.7,150.6z"/>
			<path d="M448.3,170.4c-1.3,2.6-2.7,5.1-4,7.6C445.6,175.5,447,172.9,448.3,170.4z"/>
			<path d="M395.9,116.1c19.6,19.5,19.5,51.2,0,70.7s-51.2,19.5-70.7,0s-19.5-51.2,0-70.7c0.6-0.6,1.2-1.2,1.9-1.8s1.3-1.1,1.9-1.7
				c0.3-0.3,0.7-0.5,1-0.8c0.7-0.5,1.3-1,2-1.5c19.1-13.3,45.6-11.7,63,4.8C395.3,115.5,395.6,115.8,395.9,116.1z M339.4,172.6
				c11.7,11.7,30.7,11.7,42.4,0c11.7-11.7,11.7-30.7,0-42.4c-11.7-11.7-30.7-11.7-42.4,0C327.7,141.9,327.7,160.9,339.4,172.6z"/>
			<circle class="st1" cx="360.6" cy="151.4" r="30"/>
			<path d="M370.9,291.6c4.3,7.8,6.9,15.4,8,22.7C377.8,307,375.1,299.4,370.9,291.6z"/>
			<path class="st0" d="M370.9,291.6c4.3,7.8,6.9,15.4,8,22.7c1.5,10.7-0.3,20.9-5.5,30.6c-13.1,24.5-46.1,42.5-76.2,48.7
				c9.6-18,11.7-41,8.2-54.9c0-0.2-0.1-0.4-0.2-0.6c-0.6-2.1-1.8-3.5-2.4-4.1c0-0.1-0.1-0.1-0.1-0.2c0,0-0.1-0.1-0.1-0.1
				c-0.1-0.1-0.1-0.1-0.1-0.1C326.6,321.9,349.6,307.8,370.9,291.6z"/>
			<path d="M358.6,55.6c2.3-1,4.6-2,6.9-3C363.2,53.6,360.9,54.6,358.6,55.6z"/>
			<path d="M332,110.4c19.2-13.4,45.6-11.8,63,4.8C377.6,98.7,351.1,97.1,332,110.4z"/>
			<path class="st2" d="M325.2,186.8c19.5,19.5,51.2,19.5,70.7,0s19.6-51.2,0-70.7c-0.3-0.3-0.6-0.6-0.9-0.9
				c-17.4-16.6-43.8-18.2-63-4.8c-0.7,0.5-1.3,1-2,1.5c-0.3,0.3-0.7,0.5-1,0.8c-0.6,0.5-1.3,1.1-1.9,1.7s-1.3,1.2-1.9,1.8
				C305.7,135.6,305.7,167.3,325.2,186.8z M382.3,45.9l83.8,83.8c-2.7,7.2-5.5,14.1-8.4,20.9c-1.8,4.1-3.6,8.1-5.5,12
				c-1.3,2.6-2.6,5.2-3.9,7.8c-1.3,2.6-2.7,5.1-4,7.6c-0.7,1.3-1.4,2.5-2.1,3.7c-13.2,23.4-28.7,44-46.4,61.6
				c-9,9-18.7,17.8-28.8,25.9c-24.3,19.6-51.1,36.2-79.7,49.4l-93.9-93.9c13.2-28.6,29.8-55.4,49.4-79.7
				c8.2-10.1,16.9-19.8,25.9-28.8c10.2-10.2,21.3-19.7,33.5-28.5c2.2-1.6,4.5-3.2,6.8-4.7c14.5-9.8,30.2-18.5,47.1-26.3
				c0.8-0.4,1.7-0.8,2.5-1.1c2.3-1,4.6-2,6.9-3C371,50.3,376.6,48,382.3,45.9z M314,208.4c0-0.3,0-0.6,0-0.9
				c-0.1-2.4-1.1-4.8-2.9-6.7c-3.9-3.9-10.2-3.9-14.1,0L282.9,215c-1.9,1.9-2.8,4.3-2.9,6.7c0,0.3,0,0.6,0,0.9
				c0.1,2.4,1.1,4.8,2.9,6.7c3.9,3.9,10.2,3.9,14.1,0l14.1-14.1C313,213.3,313.9,210.9,314,208.4z M268.7,257.5
				c2.5-2.5,3.4-5.9,2.7-9.1c-0.1-0.3-0.1-0.6-0.3-1c-0.1-0.3-0.2-0.6-0.3-0.9c-0.1-0.1-0.1-0.3-0.2-0.4c0-0.1-0.1-0.2-0.1-0.3
				c-1.7-3.2-5-5.4-8.9-5.4s-7.2,2.2-8.9,5.4c-0.1,0.1-0.1,0.2-0.1,0.3c-0.1,0.1-0.1,0.3-0.2,0.4c-0.1,0.3-0.2,0.6-0.3,0.9
				c-0.1,0.3-0.2,0.6-0.3,1c-0.7,3.2,0.2,6.6,2.7,9.1C258.4,261.4,264.8,261.4,268.7,257.5z"/>
			<path d="M330,111.9c0.7-0.5,1.3-1,2-1.5C331.3,110.9,330.7,111.4,330,111.9z"/>
			<path d="M367.1,269.3c-24.3,19.6-51.1,36.2-79.7,49.4l-0.1-0.1c28.6-13.2,55.4-29.8,79.7-49.4c10.1-8.1,19.8-16.9,28.8-25.9
				c17.7-17.6,33.2-38.2,46.4-61.6c-13.2,23.4-28.6,44.1-46.3,61.7C386.9,252.4,377.2,261.1,367.1,269.3z"/>
			<path d="M327.1,114.3c0.6-0.6,1.3-1.1,1.9-1.7C328.3,113.2,327.7,113.8,327.1,114.3z"/>
			<path d="M356.1,56.7C339.1,64.5,323.4,73.3,309,83C323.4,73.2,339.1,64.5,356.1,56.7z"/>
			<path d="M314,207.6c0,0.3,0,0.6,0,0.9c-0.1,2.4-1.1,4.7-2.9,6.6L297,229.1c-3.9,3.9-10.2,3.9-14.1,0c-1.8-1.8-2.8-4.2-2.9-6.6
				c0-0.3,0-0.6,0-0.9c0.1-2.4,1.1-4.7,2.9-6.6L297,201c3.9-3.9,10.2-3.9,14.1,0C312.9,202.8,313.9,205.2,314,207.6z"/>
			<path d="M305.4,338.7c3.5,13.9,1.4,36.9-8.2,54.9c30.1-6.2,63.1-24.2,76.2-48.7c5.2-9.7,7-19.9,5.5-30.6c-1.1-7.4-3.7-15-8-22.7
				c-21.3,16.2-44.3,30.3-68.5,42c0,0,0.1,0.1,0.1,0.1c0,0,0.1,0.1,0.1,0.1c0.1,0.1,0.1,0.1,0.1,0.2c0.6,0.6,1.8,2,2.4,4.1
				C305.3,338.3,305.4,338.5,305.4,338.7z M118.4,214.8c26.9-14.3,53.3-8.6,54.7-8.3c0.9,0.2,1.7,0.5,2.4,0.9c1.3,0.7,2.2,1.6,2.6,2
				c0.2,0.1,0.2,0.2,0.3,0.3c11.7-24.2,25.8-47.2,42-68.5c-1.3-0.7-2.6-1.4-3.8-2c-1.3-0.6-2.6-1.2-3.8-1.7
				c-16.2-6.8-31.5-6.4-45.6,1.2c-24.5,13.1-42.5,46.1-48.7,76.1c0,0,0,0,0,0C118.4,214.7,118.4,214.8,118.4,214.8z M509.1,2.9
				c2,2,3,4.6,2.9,7.4c-0.1,2.3-2.2,56.1-24.9,120.1c-18.1,51.3-44,94-77.1,127c-7.4,7.4-15.3,14.6-23.4,21.5
				c19.2,32.6,13.2,58.8,4.4,75.3c-20.4,38.1-75.7,61.7-115.3,61.7c-4,0-7.7-2.4-9.2-6.2c-1.5-3.7-0.7-8,2.2-10.9
				c20.1-20.1,18.8-44.9,17.8-53l-3.5-3.5c-16.4,6.9-32.7,12.5-48.6,16.5c-5.4,1.4-11.5,1.1-17.4-1.2c-4.4,9.6-10.9,18.9-19,27
				c-25.7,25.7-88.5,31-91.1,31.2c-0.3,0-0.5,0-0.8,0c-2.6,0-5.2-1.1-7.1-2.9c-2.1-2.1-3.1-4.9-2.9-7.9c0.2-2.6,5.4-65.4,31.2-91.1
				c8.1-8.1,17.4-14.6,27-19c-2.2-5.6-2.7-11.6-1.2-17.4c4.1-15.9,9.6-32.2,16.5-48.6l-3.5-3.5c-8.1-1.1-32.9-2.3-52.9,17.8
				c-1.9,1.9-4.5,2.9-7.1,2.9c-1.3,0-2.6-0.3-3.8-0.8c-3.7-1.5-6.2-5.2-6.2-9.2c0-39.6,23.6-94.9,61.7-115.3
				c16.5-8.9,42.7-14.9,75.4,4.3c6.9-8.2,14.1-16,21.5-23.4c33-33,75.8-58.9,127-77C445.5,2.3,499.4,0.1,501.6,0
				C504.4-0.1,507.1,1,509.1,2.9z M490.4,28.1c0.3-2.7,0.6-5.2,0.8-7.3c-2.2,0.2-4.6,0.5-7.3,0.8c-0.7,0.1-1.5,0.2-2.3,0.3
				c-1.8,0.2-3.8,0.5-5.8,0.8c-0.7,0.1-1.5,0.2-2.3,0.3c-0.4,0-0.8,0.1-1.2,0.2c-17.8,2.6-42.2,7.2-68.9,15.5l0,0.1c0,0-0.1,0-0.1,0
				l69.9,69.9c0.4-1.2,0.7-2.4,1.1-3.6c7.3-24.2,11.6-46.2,14.1-63c0,0,0,0,0,0c0.1-0.8,0.2-1.6,0.4-2.4c0.5-3.3,0.9-6.4,1.3-9.3
				C490.2,29.6,490.3,28.8,490.4,28.1z M466.1,129.7l-83.8-83.8c-5.7,2.1-11.3,4.3-16.8,6.7c-2.3,1-4.6,2-6.9,3
				c-0.8,0.4-1.7,0.8-2.5,1.1C339.1,64.5,323.4,73.2,309,83c-2.3,1.6-4.5,3.1-6.8,4.7c-12.2,8.7-23.4,18.2-33.6,28.4
				c-9,9-17.7,18.7-25.9,28.8c-19.6,24.3-36.2,51.1-49.4,79.7l0.1,0.1l93.9,93.9l0.1,0.1c28.6-13.2,55.4-29.8,79.7-49.4
				c10.1-8.2,19.8-16.9,28.8-25.9c17.6-17.6,33.1-38.3,46.3-61.7c0.7-1.2,1.4-2.5,2.1-3.7c1.4-2.5,2.7-5,4-7.6
				c1.3-2.6,2.6-5.2,3.9-7.8c1.9-3.9,3.7-7.9,5.5-12C460.6,143.8,463.4,136.9,466.1,129.7z M265.2,328c0.8-0.3,1.6-0.6,2.4-0.9
				l-82.7-82.7c-0.3,0.8-0.6,1.6-0.9,2.4c-4.7,12.1-8.6,24.1-11.6,35.8c-0.3,1.2-0.3,2.5,0,3.8c0,0.1,0.1,0.2,0.1,0.3
				c0.1,0.3,0.2,0.6,0.3,0.9c0.3,0.9,0.8,1.8,1.4,2.6c0.1,0.1,0.2,0.3,0.3,0.4s0.2,0.3,0.3,0.4c0.1,0.1,0.2,0.2,0.3,0.3
				c0,0,0,0,0.1,0c0.5,0.5,1,1,1.6,1.6c0.5,0.5,0.9,0.9,1.4,1.4c11,11,17.3,17.4,20.8,20.8c0.1,0.1,0.3,0.3,0.4,0.4
				c0.1,0.1,0.3,0.3,0.4,0.4c0.5,0.4,0.9,0.9,1.2,1.2c1.6,1.6,6.6,6.6,19.6,19.6c0,0,0.1,0.1,0.1,0.1c2.4,2.5,5.8,3.5,8.7,2.8
				C241.1,336.6,253.1,332.7,265.2,328z M183.9,370.6c7.7-7.7,13.5-16.6,16.8-25.6L167,311.4c-4.5,1.6-9,3.9-13.3,6.8
				c-4.3,2.8-8.5,6.2-12.3,10.1c-13.7,13.8-21,46-24,66.4c0,0,0.1,0,0.1,0c0,0,0,0,0,0C137.9,391.6,170.1,384.4,183.9,370.6z"/>
			<path d="M302.8,334c0.6,0.6,1.8,2,2.4,4.1C304.6,336,303.4,334.7,302.8,334z"/>
			<path d="M302.5,333.7c0,0,0.1,0.1,0.1,0.1C302.6,333.8,302.5,333.8,302.5,333.7z"/>
			<path d="M297,200.9c3.9-3.9,10.2-3.9,14.1,0c1.9,1.9,2.8,4.3,2.9,6.7c-0.1-2.4-1.1-4.7-2.9-6.6c-3.9-3.9-10.2-3.9-14.1,0
				l-14.1,14.1c-1.8,1.8-2.8,4.2-2.9,6.6c0.1-2.4,1.1-4.8,2.9-6.7L297,200.9z"/>
			<path class="st0" d="M267.6,327.1c-0.8,0.3-1.6,0.6-2.4,0.9c-12.2,4.7-24.1,8.5-35.9,11.5c-2.8,0.8-6.1-0.3-8.6-2.7
				c0,0-0.1-0.1-0.1-0.1c-13-13-18-18-19.6-19.6c-0.3-0.3-0.7-0.7-1.2-1.2c-0.1-0.1-0.3-0.3-0.4-0.4c-0.1-0.1-0.3-0.3-0.4-0.4
				c-3.5-3.5-9.8-9.8-20.8-20.8c-0.5-0.5-0.9-0.9-1.4-1.4c-0.5-0.5-1-1-1.6-1.6c0,0,0,0-0.1,0c-0.1-0.1-0.2-0.2-0.3-0.3
				c-0.1-0.1-0.2-0.3-0.3-0.4c-0.1-0.1-0.2-0.3-0.3-0.4c-0.6-0.8-1.1-1.7-1.4-2.6c-0.1-0.3-0.2-0.6-0.3-0.9c0-0.1,0-0.2-0.1-0.3
				c-0.3-1.2-0.3-2.5,0.1-3.7c2.9-11.8,6.8-23.7,11.4-35.9c0.3-0.8,0.6-1.6,0.9-2.4L267.6,327.1z"/>
			<path d="M254.5,243.4c4-3.9,10.3-3.9,14.2,0c0.7,0.7,1.3,1.6,1.8,2.4c0.1,0.1,0.1,0.2,0.1,0.3c0.1,0.1,0.1,0.3,0.2,0.4
				c0.1,0.3,0.2,0.6,0.3,0.9c0.1,0.3,0.2,0.6,0.3,1c0.1,0.6,0.2,1.3,0.2,2c0,5.5-4.5,10-10,10c-5.5,0-10-4.5-10-10
				c0-0.7,0.1-1.4,0.2-2c0.1-0.3,0.1-0.6,0.3-1c0.1-0.3,0.2-0.6,0.3-0.9c0.1-0.1,0.1-0.3,0.2-0.4c0-0.1,0.1-0.2,0.1-0.3
				C253.2,244.9,253.8,244.1,254.5,243.4z"/>
			<path d="M261.6,240.4c3.9,0,7.2,2.2,8.9,5.4c-0.5-0.9-1.1-1.7-1.8-2.4c-3.9-3.9-10.2-3.9-14.2,0c-0.7,0.7-1.3,1.6-1.8,2.4
				C254.4,242.6,257.7,240.4,261.6,240.4z"/>
			<path d="M240.4,413c3.9,3.9,3.9,10.2,0,14.1l-28.3,28.3c-3.9,3.9-10.2,3.9-14.1,0s-3.9-10.2,0-14.1l28.3-28.3
				C230.1,409.1,236.5,409.1,240.4,413z"/>
			<path d="M229.3,339.5c11.8-2.9,23.7-6.8,35.9-11.5c-12.1,4.7-24.1,8.6-35.8,11.6c-2.9,0.7-6.3-0.3-8.7-2.8
				C223.2,339.2,226.5,340.3,229.3,339.5z"/>
			<path class="st1" d="M167,311.4l33.6,33.6c-3.3,9-9.1,17.9-16.8,25.6c-13.8,13.8-45.9,21-66.3,24c3-20.4,10.2-52.6,24-66.4
				c3.8-3.9,7.9-7.2,12.2-10.1C158,315.3,162.5,313,167,311.4z"/>
			<path d="M199.8,315.9c-0.1-0.1-0.3-0.3-0.4-0.4C199.5,315.6,199.7,315.8,199.8,315.9z"/>
			<path d="M199.4,315.5c-0.1-0.1-0.3-0.3-0.4-0.4C199.1,315.2,199.3,315.4,199.4,315.5z"/>
			<path d="M199,315.1c-3.5-3.5-9.9-9.8-20.8-20.8C189.2,305.3,195.5,311.6,199,315.1z"/>
			<path class="st0" d="M178.1,209.4c-0.4-0.4-1.3-1.3-2.6-2c-0.7-0.4-1.5-0.7-2.4-1c-1.4-0.3-27.9-6-54.7,8.3
				c6.2-30.1,24.3-62.9,48.7-76c14.2-7.6,29.5-8,45.6-1.3c1.3,0.5,2.5,1.1,3.8,1.7c1.3,0.6,2.6,1.3,3.8,2
				c-16.2,21.3-30.3,44.3-42,68.5C178.4,209.6,178.3,209.5,178.1,209.4z"/>
			<path d="M178.1,294.3c-0.5-0.5-0.9-0.9-1.4-1.4C177.2,293.3,177.7,293.8,178.1,294.3z"/>
			<path d="M174.9,290.9c0.1,0.1,0.2,0.2,0.3,0.3C175.1,291.1,174.9,291,174.9,290.9z"/>
			<path d="M174.2,290.1c0.1,0.1,0.2,0.3,0.3,0.4C174.4,290.4,174.3,290.3,174.2,290.1z"/>
			<path d="M172.8,287.5c0.3,0.9,0.8,1.8,1.4,2.6C173.6,289.3,173.1,288.4,172.8,287.5z"/>
			<path d="M172.5,286.6c0.1,0.3,0.2,0.6,0.3,0.9C172.7,287.3,172.6,287,172.5,286.6z"/>
			<path d="M169.7,427.2c3.9,3.9,3.9,10.2,0,14.1L102,509c-3.9,3.9-10.2,3.9-14.1,0c-3.9-3.9-3.9-10.2,0-14.1l67.7-67.7
				C159.4,423.3,165.8,423.3,169.7,427.2z"/>
			<path d="M118.4,214.7c26.8-14.3,53.3-8.6,54.7-8.3c0.9,0.3,1.7,0.6,2.4,1c-0.7-0.4-1.5-0.7-2.4-0.9c-1.4-0.3-27.8-6-54.7,8.3
				C118.4,214.8,118.4,214.7,118.4,214.7z"/>
			<path d="M183.9,370.6c-13.8,13.8-46,21-66.4,24c0,0,0,0,0,0C137.9,391.6,170,384.4,183.9,370.6c7.6-7.7,13.4-16.6,16.7-25.6
				L167,311.4l33.7,33.6C197.4,354,191.6,362.9,183.9,370.6z"/>
			<path d="M98.9,271.6c3.9,3.9,3.9,10.2,0,14.1L70.7,314c-3.9,3.9-10.2,3.9-14.1,0s-3.9-10.2,0-14.1l28.3-28.3
				C88.7,267.7,95.1,267.7,98.9,271.6z"/>
			<path d="M89.7,427.2c3.9,3.9,3.9,10.2,0,14.1L22,509c-3.9,3.9-10.2,3.9-14.1,0c-3.9-3.9-3.9-10.2,0-14.1l67.7-67.7
				C79.4,423.3,85.8,423.3,89.7,427.2z"/>
			<path d="M84.8,342.3c3.9,3.9,3.9,10.2,0,14.1l-67.7,67.7c-3.9,3.9-10.2,3.9-14.1,0s-3.9-10.2,0-14.1l67.7-67.7
				C74.6,338.4,80.9,338.4,84.8,342.3z"/>
		</g>
		<g>
		</g>
	</g>
</g>
</svg>
