<svg id="Layer_1" data-name="Layer 1" xmlns="http://www.w3.org/2000/svg" viewBox="0 0 512 486"><defs><style>.cls-1{fill:#6e44ff;}.cls-2{fill:#ee562f;}.cls-3{fill:#33ebc9;}.cls-4{fill:#12130f;}</style></defs><path class="cls-1" d="M10,187.62l94.31,288,304,.4,93.56-287.73L255.69,10Z"/><path class="cls-2" d="M205.28,327.39,94.76,210l161.3-72.6L407.47,214,360.61,407Z"/><ellipse class="cls-3" cx="94.76" cy="209.99" rx="26.88" ry="26.86"/><ellipse class="cls-3" cx="407.41" cy="213.97" rx="26.88" ry="26.86"/><ellipse class="cls-3" cx="359.61" cy="406.99" rx="26.88" ry="26.86"/><ellipse class="cls-3" cx="206.28" cy="327.39" rx="26.88" ry="26.86"/><ellipse class="cls-3" cx="256.06" cy="137.36" rx="26.88" ry="26.86"/><path class="cls-4" d="M507.86,180.15l-73.26-53a10,10,0,1,0-11.73,16.19l56,40.55-40.21,10.57a36.83,36.83,0,0,0-58.37-5.4l-88-44.53a36.83,36.83,0,0,0-26.11-42.59V29.85l83.8,60.67a10,10,0,1,0,11.74-16.2L261.63,1.9A10,10,0,0,0,255.76,0a9.85,9.85,0,0,0-5.85,1.9L4.14,179.49A10,10,0,0,0,.5,190.72l94.34,288a10.35,10.35,0,0,0,9.49,7.28H408.41a10,10,0,0,0,9.51-6.91L511.5,191.33a10,10,0,0,0-3.64-11.19ZM407.41,197.1A16.87,16.87,0,1,1,390.52,214,16.89,16.89,0,0,1,407.41,197.1ZM283.18,162.31l88,44.54a36.47,36.47,0,0,0-.65,5.48L266.14,239.78v-67A37,37,0,0,0,283.18,162.31ZM234,303.13l22.15-32.62L331.63,380.9l-89.3-45.76a36.71,36.71,0,0,0-8.32-32ZM217.25,292.2a36.85,36.85,0,0,0-28.67,2.86L126.37,229l113.55,29.85Zm5.91,35.19a16.89,16.89,0,1,1-16.88-16.86A16.89,16.89,0,0,1,223.16,327.39ZM131.24,204.54l96.6-43.48a37,37,0,0,0,18.29,11.79v66.93l-114.49-30.1a37.79,37.79,0,0,0-.4-5.14Zm124.82-84a16.87,16.87,0,1,1-16.88,16.86A16.9,16.9,0,0,1,256.06,120.49ZM246.13,29.3v72.56a36.85,36.85,0,0,0-26.54,41L123,186.31a36.84,36.84,0,0,0-60.18,5.28l-30.25-8ZM111.64,210a16.88,16.88,0,1,1-16.88-16.87A16.89,16.89,0,0,1,111.64,210Zm-86.26-7.57L57.9,211a36.85,36.85,0,0,0,53.89,31.7l62.5,66.4a36.74,36.74,0,0,0,3.32,41.49l-70,103Zm98.27,263.2,70.29-103.49a36.81,36.81,0,0,0,39-9.32l90.6,46.43A36.87,36.87,0,0,0,373,441.35L389.79,466ZM342.73,407a16.89,16.89,0,1,1,16.88,16.87A16.89,16.89,0,0,1,342.73,407Zm62.57,46.22L389,429.3a36.79,36.79,0,0,0-10.37-53.91L386,344.8a10,10,0,0,0-19.43-4.73s-7.3,30.07-7.3,30.07a36.49,36.49,0,0,0-9.8,1.42L272.4,258.82l102.74-27a37.2,37.2,0,0,0,14.23,14.31l-1.58,6.51a10,10,0,0,0,19.44,4.72l1.59-6.54A36.92,36.92,0,0,0,444.29,214c0-.12,0-.23,0-.35l42.58-11.19Z"/><circle class="cls-4" cx="392" cy="109" r="10"/><circle class="cls-4" cx="386.89" cy="298.71" r="10"/></svg>